# xmcd
#
# Track frame offsets:
#	150
#	20220
#	33817
#	49022
#	67097
#	81480
#	101140
#	120192
#	140422
#	160555
#	174160
#	189357
#	207797
#	222170
#	241870
#	261007
#
# Disc length: 3750 seconds
#
# Revision: 1
# Processed by: cddbd v1.5.1PL0 Copyright (c) Steve Scherf et al.
# Submitted via: audiograbber 1.82.02
#
DISCID=d30ea410
DTITLE=Travis Tritt - Sound Choice 2119 Hits of Travis Tritt Vol 1
DYEAR=1900
DGENRE=Karaoke
TTITLE0=Travis Tritt - Put some drive in your country
TTITLE1=Travis Tritt - The wiskey ain't workin' anymore
TTITLE2=Travis Tritt - Country Club
TTITLE3=Travis Tritt - Anymore
TTITLE4=Travis Tritt - T-R-O-U-B-L-E
TTITLE5=Travis Tritt - Help me hold on
TTITLE6=Travis Tritt - Between an old memory and me
TTITLE7=Travis Tritt - Lord have mercy on the working man
TTITLE8=Travis Tritt W - Vocals - Put some drive in your country W - Vocals
TTITLE9=Travis Tritt W - Vocals - The wiskey ain't workin' anymore W - Vocals
TTITLE10=Travis Tritt W - Vocals - Country Club W - Vocals
TTITLE11=Travis Tritt W - Vocals - Anymore W - Vocals
TTITLE12=Travis Tritt W - Vocals - T-R-O-U-B-L-E W - Vocals
TTITLE13=Travis Tritt W - Vocals - Help me hold on W - Vocals
TTITLE14=Travis Tritt W - Vocals - Between an old memory and me W - Vocals
TTITLE15=Travis Tritt W - Vocals - Lord have mercy on the working man W - Vocal
TTITLE15=s
EXTD=
EXTT0=
EXTT1=
EXTT2=
EXTT3=
EXTT4=
EXTT5=
EXTT6=
EXTT7=
EXTT8=
EXTT9=
EXTT10=
EXTT11=
EXTT12=
EXTT13=
EXTT14=
EXTT15=
PLAYORDER=
